<svg id="Layer_1" data-name="Layer 1" xmlns="http://www.w3.org/2000/svg" viewBox="0 0 640.05 350.5"><defs><style>.cls-1{fill:#e1c8a9;}</style></defs><path class="cls-1" d="M.05,134.4l0-.05V178.2l.05,0L17,161.25q5-5,.05-9.85L.05,134.4M230,245.7l8.15,8.15q4.9,4.91,9.85,0l8.15-8.15q4.91-4.95,0-9.85L248,227.7q-5-4.9-9.85,0l-8.2,8.15q-4.9,4.91.05,9.85m46.35-35.65q-5,4.9,0,9.85l8.15,8.15q4.9,4.95,9.8,0l8.2-8.15q4.9-5,0-9.85l-8.15-8.15q-5-5-9.85,0l-8.15,8.15m-7.2-39.55L261,178.65q-4.9,4.9.05,9.85l8.1,8.15q5,4.9,9.85,0l8.15-8.15q5-5,0-9.85l-8.1-8.15q-4.95-4.91-9.9,0M45.65,249.65,37.5,241.5q-4.95-4.91-9.85,0l-8.2,8.15q-4.9,4.95.05,9.85l8.15,8.15q4.91,4.91,9.85,0l8.15-8.15q4.91-4.9,0-9.85M68.6,256q-4.95-4.9-9.85,0l-8.2,8.15q-4.9,4.95.05,9.85l8.15,8.15q4.91,4.9,9.85,0L76.75,274q4.91-4.9,0-9.85L68.6,256m79.45-60.4q-5-5-9.85,0l-46.4,46.3q-5,5,0,9.9l46.4,46.4q5,4.91,9.85,0l46.35-46.35q4.9-5-.05-9.85l-46.3-46.35m-13.35-32.5q-4.95,4.95,0,9.9l26.2,26.1q4.91,4.95,9.9,0L196.8,173q5-4.95,0-9.85l-26.1-26.2q-5-4.91-9.9,0L134.7,163.05M118.5,133q-4.95-4.9-9.85,0l-8.15,8.15q-4.91,5,0,9.85l8.1,8.15q4.91,4.91,9.85,0l8.2-8.15q4.9-4.9,0-9.85L118.5,133M73.75,55l-8.2,8.15q-4.9,5,0,9.85l8.15,8.15q4.91,4.91,9.85,0L91.75,73q4.91-4.91,0-9.85L83.6,55q-4.95-4.91-9.85,0M63.2,76.5q-5-4.91-9.9,0L27.15,102.65q-4.95,4.95,0,9.9l26.15,26.1q4.91,4.95,9.9,0l26.1-26.1q5-5,0-9.85L63.2,76.5M305,86.1,286.7,67.9q-4.95-5-9.9,0L258.65,86.1q-5,5,0,9.9l18.2,18.2q4.9,5,9.9,0L304.9,96q5-4.95.05-9.9m-91.7,41.15q-5-4.91-9.9,0l-8.15,8.15q-4.9,4.95.05,9.85l8.1,8.15q5,4.9,9.9,0l8.15-8.15q4.9-4.91,0-9.85l-8.15-8.15m324,156.25q-5-5-9.9,0l-8.15,8.15q-4.9,4.91.05,9.85l8.1,8.15q5,5,9.85,0l8.2-8.15q4.9-5,0-9.85l-8.15-8.15m6.55-30-8.2,8.15q-4.9,5,.05,9.85l8.15,8.15q4.9,4.91,9.85,0l8.15-8.15q4.9-4.9,0-9.85l-8.15-8.15q-5-4.91-9.85,0m4-88.8-8.15-8.15q-4.95-4.91-9.9,0l-8.15,8.15q-4.9,5,0,9.85l8.1,8.15q4.95,4.91,9.9,0l8.15-8.15q4.91-4.91,0-9.85m56.7,57.65,8.15,8.2q4.9,4.9,9.85,0l8.15-8.2q4.9-4.9,0-9.85l-8.15-8.15q-4.95-4.9-9.85,0l-8.15,8.15q-4.9,5,0,9.85M583.05,168.5q-4.95-4.91-9.9.05l-19,19q-4.95,4.95,0,9.85l19,19q5,4.9,9.9-.05l19-18.95q5-5,0-9.85l-19-19.05M336.6,321.85,328.45,330q-4.9,4.9.05,9.85l8.1,8.2q4.9,4.9,9.85,0l8.15-8.2q4.9-5,0-9.85l-8.1-8.15q-5-4.91-9.9,0m2.3-172.35q5-5,0-9.85l-26.1-26.2q-4.95-4.9-9.9,0L276.75,139.6q-5,5,0,9.9l26.15,26.1q4.91,5,9.9,0l26.1-26.1m97.75-42.7q-4.9-5-9.85,0L319.1,214.55q-4.91,4.95,0,9.85L426.85,332.15q4.9,5,9.8,0L544.4,224.4q5-5,.05-9.9L436.65,106.8m-37.5-84.6q-4.95-4.95-9.85,0L342.9,68.5q-4.95,4.95,0,9.9l46.4,46.4q4.95,4.9,9.85,0L445.5,78.4q4.9-5-.05-9.85L399.15,22.2M322.4,26.7q5-4.9,0-9.8l-8.15-8.15q-4.9-4.95-9.85,0l-8.15,8.15q-5,4.91,0,9.8l8.15,8.15q5,4.95,9.85,0l8.15-8.15m152.8-6.25q4.91-5,0-9.85l-8.15-8.15q-4.91-4.9-9.85,0L449,10.6q-4.9,4.9.05,9.85l8.15,8.15q4.95,4.91,9.85,0l8.15-8.15M638,132.35q-4.95-4.9-9.9.05l-19,19q-4.95,4.95,0,9.85l19,19q4.95,4.91,9.9-.05l2-2V134.35l-2-2M500.2,78.85q-4.95-4.91-9.9.05l-19,19q-4.95,4.95,0,9.85l19,19q4.95,4.9,9.9,0l18.9-19q5-4.95,0-9.85L500.2,78.85M482.4,57.9l8.15-8.15q4.9-4.95,0-9.85l-8.15-8.15q-4.95-4.91-9.85,0l-8.2,8.15q-4.91,4.91,0,9.85l8.15,8.15q4.9,4.91,9.85,0M28.2,277.45q-4.95-4.9-9.9,0L.05,295.7v25.7L18.3,339.6q4.9,4.95,9.9,0l26.1-26.1q5-5,0-9.85l-26.1-26.2M632.15,303.6q-4.95,4.95,0,9.9l7.9,7.9V295.7Z"/></svg>